<svg xmlns="http://www.w3.org/2000/svg" viewBox="0 0 61.99 61.99"><title>資產 3</title><path d="M60.89,52.09,48.75,40l8.66-5a2,2,0,0,0-.26-3.66L18.53,15.88a2,2,0,0,0-2.65,2.65l15.4,38.62a2,2,0,0,0,3.66.27l5-8.66L52.08,60.89a2,2,0,0,0,1.44.6,2,2,0,0,0,1.45-.6L60.89,55A2,2,0,0,0,60.89,52.09Z" style="fill:#b6e2d3;stroke:#2f5233;stroke-miterlimit:10"/><path d="M9.45,6.57A2,2,0,0,0,6.57,9.45L11.1,14A2.05,2.05,0,0,0,14,14a2,2,0,0,0,0-2.89Z" style="fill:#b6e2d3;stroke:#2f5233;stroke-miterlimit:10"/><path d="M11,20.67a2,2,0,0,0-2-2H2.54a2,2,0,0,0,0,4.08H9A2,2,0,0,0,11,20.67Z" style="fill:#b6e2d3;stroke:#2f5233;stroke-miterlimit:10"/><path d="M10.16,27,5.63,31.5a2,2,0,1,0,2.88,2.88l4.54-4.53A2,2,0,0,0,10.16,27Z" style="fill:#b6e2d3;stroke:#2f5233;stroke-miterlimit:10"/><path d="M20.67,11a2,2,0,0,0,2-2V2.54a2,2,0,1,0-4.08,0V9A2,2,0,0,0,20.67,11Z" style="fill:#b6e2d3;stroke:#2f5233;stroke-miterlimit:10"/><path d="M28.4,13.64a2,2,0,0,0,1.45-.59l4.53-4.54a2,2,0,1,0-2.89-2.88L27,10.16a2.06,2.06,0,0,0,0,2.89A2,2,0,0,0,28.4,13.64Z" style="fill:#b6e2d3;stroke:#2f5233;stroke-miterlimit:10"/></svg>