<svg xmlns="http://www.w3.org/2000/svg" viewBox="0 0 290.19 409.6"><title>css</title><polygon points="290.19 80.5 263.75 376.65 144.92 409.6 26.41 376.7 0 80.5 290.19 80.5" style="fill:#264de4"/><polygon points="241.12 357.8 263.71 104.71 145.09 104.71 145.09 384.41 241.12 357.8" style="fill:#2965f1"/><polygon points="60.54 214.57 63.8 250.9 145.09 250.9 145.09 214.57 60.54 214.57" style="fill:#ebebeb"/><polygon points="145.09 141.04 144.97 141.04 54 141.04 57.3 177.38 145.09 177.38 145.09 141.04" style="fill:#ebebeb"/><polygon points="145.09 346.72 145.09 308.92 144.93 308.97 104.48 298.04 101.89 269.06 82.23 269.06 65.42 269.06 70.51 326.1 144.93 346.77 145.09 346.72" style="fill:#ebebeb"/><path d="M68.3,0h44V18.4H86.7V36.8h25.6V55.2h-44Z" transform="translate(0 0)"/><path d="M121.1,0h44V16H139.5v3.2h25.6V56h-44V39.2h25.6V36H121.1Z" transform="translate(0 0)"/><path d="M173.9,0h44V16H192.3v3.2h25.59V56h-44V39.2h25.6V36H173.9Z" transform="translate(0 0)"/><polygon points="189.7 250.9 185.49 298.01 144.97 308.95 144.97 346.75 219.44 326.1 219.99 319.97 228.53 224.33 229.41 214.57 235.97 141.04 144.97 141.04 144.97 177.38 196.16 177.38 192.85 214.57 144.97 214.57 144.97 250.9 189.7 250.9" style="fill:#fff"/></svg>