<svg xmlns="http://www.w3.org/2000/svg" viewBox="0 0 179.3 84.88"><title>資產 1</title><rect x="19.9" y="44.78" width="121.9" height="38.6" style="fill:none"/><g style="isolation:isolate"><rect x="19.9" y="44.78" width="121.1" height="40.1" style="fill:none"/><path d="M23.5,50.08h4.4L36.8,66l2.8,5.7h.2c-.2-2.8-.5-6-.5-9V50.08h4v27H38.9L30,61.18l-2.8-5.6H27c.2,2.8.5,5.9.5,8.8v12.7h-4Z" style="fill:#040000"/><path d="M50,73.58h5.9v-18H51.1v-2.7a15.15,15.15,0,0,0,5.9-2.1h3.2v22.8h5.3v3.5H50.1v-3.5Z" style="fill:#040000"/><path d="M89.5,47.78a16.67,16.67,0,0,1-1.2,1.6,42.8,42.8,0,0,0,14.9,9.3,11.76,11.76,0,0,0-2.4,3.1,60.23,60.23,0,0,1-5.6-3v2.4H76.9v-1.7a53.62,53.62,0,0,1-5.3,2.8,14.19,14.19,0,0,0-2.5-3.1c6.8-2.7,13.6-7.3,17.3-13ZM74.9,65.08H97.8v14.7H94.2v-1.7H78.3v1.8H74.9Zm3.4,3v6.8H94.2v-6.8Zm15.8-10a44,44,0,0,1-7.8-6.3,40.36,40.36,0,0,1-7.3,6.3Z" style="fill:#040000"/><path d="M137.1,51.08a25.56,25.56,0,0,1-5.7,9.6,25.61,25.61,0,0,0,8.7,4.5,15.35,15.35,0,0,0-2.1,2.9,6.12,6.12,0,0,1-1.2-.5v12.3h-3.3v-1.3h-9.1V80h-3.2V67.88a18.61,18.61,0,0,1-2.5,1,10.15,10.15,0,0,0-1.9-2.7l.2-.1a37.63,37.63,0,0,0-2.4-3.8V80h-3.2V64.08a32.86,32.86,0,0,1-4.4,9.2,12.17,12.17,0,0,0-1.6-3c2.3-3,4.6-8.4,5.7-13.2h-4.8v-3.2h5.2v-7.7h3.2v7.7h4.5v2a26.71,26.71,0,0,0,6.3-9.7l3.3.9a27.51,27.51,0,0,1-1.4,3h7l.6-.1Zm-19.3,14.7a28.17,28.17,0,0,0,9-5.2,26.59,26.59,0,0,1-3.3-4.4,35.34,35.34,0,0,1-3.2,3.4,19.4,19.4,0,0,0-2.6-2.3l.3-.2h-3.2v1.2c1,1.1,3.8,4.6,4.5,5.4Zm16.7.8a25.79,25.79,0,0,1-5.4-3.7,37.74,37.74,0,0,1-5.2,3.7Zm-1,9v-6.1h-9.1v6.1Zm-7.8-22.4-.3.5a22.54,22.54,0,0,0,3.7,4.9,22.86,22.86,0,0,0,3.8-5.4Z" style="fill:#040000"/></g><path d="M99.3,8.2l.1.3.2.2.6.1.7-.2a1.78,1.78,0,0,0,.8-.7,1.39,1.39,0,0,0,.2-1.1v-5l.2-.1.4-.1h.1l.1-.1V1.3l-.1-.1-.1-.1h-2.3l-.1.1-.1.2v.1l.1.1.1.1h0a1.27,1.27,0,0,1,.6.1l.1.1.1.1V7a1.7,1.7,0,0,1-.1.7l-.1.2-.1.1-.1.1h-.1l-.1-.1-.1-.1-.2-.2-.3-.1-.2.1-.2.1-.1.2v.2" style="fill:#221f20"/><path d="M117.9,3.5l.1.1h.5V6.5l-.1.1h-.3l-.1.1-.1.1h0v.1l.1.1.1.1h1.5l.1-.1.1-.1V6.8l-.1-.1-.1-.1h-.3l-.1-.1V4l.4-.4.6-.2.3.1.2.1.1.3V6.6h-.4l-.1.1-.1.1v.1l.1.1.2.1h1.7l.1-.1V6.7l-.1-.1h-.4l-.1-.1V4.1l-.1-.6-.4-.4h0l-.6-.2-.7.2-.5.3V3.1l-.1-.1-.1-.1h-.1l-.8.2-.1.1-.1.2" style="fill:#221f20"/><path d="M150.6,3.5l.1.1h.5V6.5l-.1.1h-.3l-.1.1-.1.1h0v.1l.1.1.1.1h1.5l.1-.1.1-.1V6.8l-.1-.1-.1-.1H152l-.1-.1V4l.4-.4.6-.2.3.1.2.1.1.3.1.5V6.6h-.4l-.1.1v.2l.1.1.1.1H155l.1-.1V6.7l-.1-.1h-.4l-.1-.1V4.1l-.1-.6-.4-.4-.6-.2-.7.2-.5.3V3.1l-.1-.1-.1-.1h-.1l-.8.2-.2.1-.1.2" style="fill:#221f20"/><path d="M116.7,27.7l-.2-.1-.1.1-.1.1-.2.2-.3.1h-.1l-.1-.1-.1-.1-.1-.1V25.1h1.1l.1-.1.1-.1v-.1l-.1-.1-.1-.1h-1V23.4l-.1-.1-.1-.1h-.1l-.1.1v.1h0a1.45,1.45,0,0,1-.2.7l-.2.2-.3.1-.2.1-.1.2h0v.1l.1.1h.4v2.8l.1.4.2.3.3.2.4.1.7-.2.5-.4h0l.1-.2v-.1l-.2-.1" style="fill:#221f20"/><path d="M104.5,22.5l-.1-.1H100l-.1.1-.1.1h0l-.4,1.2v.1l.1.1.1.1h.1l.1-.1.1-.1.3-.5.1-.2.1-.1.3-.2.5-.1h.5v4.9l-.1.1-.1.1-.2.1h-.5l-.1.1-.1.1v.1l.1.1.1.1h2.3l.1-.1.1-.1v-.1l-.1-.1-.1-.1h0a.75.75,0,0,1-.5-.1l-.1-.1V23h.5l.5.1.3.2.1.1c.1.2.3.5.4.7l.1.1h.2l.1-.1.1-.1v-.1l-.3-1.4" style="fill:#221f20"/><path d="M104.5,5.9l.4-.4h0a4.18,4.18,0,0,1,1-.4v1l-.5.4-.5.1h-.1l-.4-.1-.1-.1V6.2ZM104,7.2a1.88,1.88,0,0,0,.8.2h0l.7-.1.6-.4.2.3.2.1.2.1.6-.2.1-.1.1-.1-.1-.1h0l-.1-.1-.1-.1-.1.1H107V4.3l-.1-.5-.4-.5a1.85,1.85,0,0,0-.7-.2h-.2a3.55,3.55,0,0,0-1,.2l-.4.3L104,4v.3l.1.2h0l.3.1h0l.2-.1.2-.2.1-.3V3.7l.1-.1.5-.1h0l.2.1.2.2.1.5v.4a5,5,0,0,0-1.3.4,1.56,1.56,0,0,0-.8.6,1.08,1.08,0,0,0-.3.7h0l.1.5.3.3" style="fill:#221f20"/><path d="M114.2,5.9l.4-.4h0a4.18,4.18,0,0,1,1-.4v1l-.5.4-.5.1h-.1l-.4-.1-.1-.1V6.2Zm-.5,1.3a1.88,1.88,0,0,0,.8.2h0l.7-.1.6-.3.2.3.2.1.2.1.6-.2.1-.1V7.1L117,7l-.1-.1-.1-.1-.1.1h-.1l-.1-.1V4.4l-.1-.5-.4-.5a1.85,1.85,0,0,0-.7-.2h-.2a3.55,3.55,0,0,0-1,.2h0l-.4.3-.2.4v.1l.1.2.1.2h0l.3.1.2-.1.2-.2.1-.3V3.7l.1-.1.5-.1h0l.2.1.2.2.2.5v.4a5,5,0,0,0-1.3.4,1.56,1.56,0,0,0-.8.6,1.08,1.08,0,0,0-.3.7h0l.1.5.3.3" style="fill:#221f20"/><path d="M146.9,5.9l.4-.4h0a4.18,4.18,0,0,1,1-.4v1l-.5.4-.5.1h-.1l-.4-.1-.1-.1V6.2Zm-.5,1.3a1.88,1.88,0,0,0,.8.2l.7-.1.6-.3.2.3.2.1.2.1.6-.2.1-.1.1-.1V7l-.1-.1-.1-.1-.2.1h-.2l-.1-.1V4.4l-.1-.5-.4-.5a1.85,1.85,0,0,0-.7-.2h-.2a3.55,3.55,0,0,0-1,.2l-.4.3-.2.4v.1h0l.1.2.1.2h0l.3.1.2-.1.2-.2.1-.3V3.7l.1-.1.5-.1h0l.2.1.2.2.2.5v.4a5,5,0,0,0-1.3.4,1.56,1.56,0,0,0-.8.6.91.91,0,0,0-.3.7h0l.1.5.3.3" style="fill:#221f20"/><path d="M167,5.9l.4-.4h0a3,3,0,0,1,1-.4v1l-.5.4-.5.1h-.1l-.4-.1-.1-.1V6.2Zm-.5,1.3a1.88,1.88,0,0,0,.8.2h0l.7-.1.6-.3.2.3.2.1.2.1.6-.2.1-.1.1-.1-.1-.1-.1-.1-.1-.1-.1.1h-.1l-.1-.1V4.4l-.1-.5-.4-.5a1.85,1.85,0,0,0-.7-.2H168a3.55,3.55,0,0,0-1,.2l-.4.3-.2.4v.1h0l.1.2.1.2h0l.3.1h0l.2-.1.2-.2.1-.3V4l.1-.1.5-.1h0l.2.1.2.2.1.5V5a5,5,0,0,0-1.3.4,1.56,1.56,0,0,0-.8.6.91.91,0,0,0-.3.7h0l.1.5h.3" style="fill:#221f20"/><path d="M101.2,12.4h0l.5-.1h.7a1.14,1.14,0,0,1,.8.3l.3.3.1.4-.1.5-.2.4-.3.2-.4.1h-1.2V12.7Zm-.9,4.8-.2.1-.4.1h-.1l-.1.1-.1.1v.1l.1.1h2.2l.1-.1h.2v-.1l-.1-.1-.1-.1h0l-.4-.1-.1-.1v-2h1.3a1.54,1.54,0,0,0,1.3-.5l.4-.5a1.7,1.7,0,0,0,.1-.7h0c0-.2-.1-.5-.1-.7l-.5-.5a1.75,1.75,0,0,0-1.2-.4H99.8l-.1.1-.1.1v.1l.1.1.1.1h0l.4.1.1.1v4.6" style="fill:#221f20"/><path d="M109.9,15.8h0a2.38,2.38,0,0,1,.3-1.2l.3-.3.4-.1.4.1.3.3a2.13,2.13,0,0,1,.3,1.2h0a2.38,2.38,0,0,1-.3,1.2l-.3.3-.4.1-.4-.1-.3-.3a2.13,2.13,0,0,1-.3-1.2m.3,2.1a2.2,2.2,0,0,0,.8.1,2.35,2.35,0,0,0,.8-.2l.6-.5a2.69,2.69,0,0,0,.5-1.5h0a2.35,2.35,0,0,0-.5-1.6l-.6-.5a3.25,3.25,0,0,0-1.6,0l-.6.5a2.27,2.27,0,0,0-.6,1.6h0a2.77,2.77,0,0,0,.1.9,1.61,1.61,0,0,0,.4.7l.7.5" style="fill:#221f20"/><path d="M106.7,14.3v-.6l-.1-.1-.1-.1h-.1l-.9.3-.1.1-.1.2v.1l.1.1h.6v2.9l-.1.1-.1.1h-.3l-.1.1-.1.1h0v.1l.1.1h2l.1-.1.1-.1v-.1l-.1-.1-.2-.1H107l-.2-.1-.1-.1V15a2.7,2.7,0,0,1,.7-.8l.2-.1h.1l.1.1.3.1h.2l.2-.2.1-.3v-.2l-.1-.2-.4-.1-.7.2-.7.8" style="fill:#221f20"/><path d="M139.2,4.5l-.2-.1h-1.8l-.2.1-.1.2v.1l.1.2.2.1H139l.2-.1.1-.2-.1-.1" style="fill:#221f20"/><path d="M144.7,5.6a5.5,5.5,0,0,1-.7.9,1.14,1.14,0,0,1-.8.3h-1.1l-.1-.1-.1-.2V1.9l.1-.1.1-.1h.4l.1-.1.1-.1V1.4l-.1-.1-.1-.1h-2.1l-.1.1-.1.1v.1l.1.1h.1l.4.1.1.1V6.6l-.1.1-.1.1h-.4l-.1.1-.1.1v.1l.1.1h3.9l.1-.1.1-.1.5-1.2h0V5.6l-.1-.1h-.2l.2.1h0" style="fill:#221f20"/><path d="M158.2,5.3l-.3.2-.3.1-.4-.1-.3-.2a1.85,1.85,0,0,1-.2-.7l.1-.5.2-.3.2-.2.3-.1h.4l.3.2a1.53,1.53,0,0,1,0,1.6m-.8,1.8.5.1.3.1.5.2.1.1v.1l-.1.2-.1.2-.4.2a1.48,1.48,0,0,1-.7.1h-.3l-.6-.2-.2-.2-.1-.1.1-.2.3-.2h0Zm2.4-4-.2-.2-.2-.1h-.1l-.4.2-.3.2a1.69,1.69,0,0,0-1-.3h-.1a1.78,1.78,0,0,0-1,.4l-.4.5-.1.6a1.85,1.85,0,0,0,.2.7l.4.4-.3.3-.2.4h0v.2l.2.2.1.1L156,7l-.2.2-.1.3h0l.2.4.5.3c.3.1.7.2,1,.3h.2a5,5,0,0,0,1.2-.2,1.61,1.61,0,0,0,.7-.4l.2-.6h0l-.2-.5-.5-.1h0l-.1-.1a3.59,3.59,0,0,0-1.1-.2,2.64,2.64,0,0,0-.7-.1l-.2-.1h-.1V6.1L157,6l.6.1a1.5,1.5,0,0,0,1.1-.4l.4-.5.1-.6h0a1.61,1.61,0,0,0-.3-.9h0l.1.1.3.1h.1l.2-.2.1-.3h0l.1-.3h0" style="fill:#221f20"/><path d="M173.1,5.3l-.3.2-.3.1-.4-.1-.3-.2a1.85,1.85,0,0,1-.2-.7l.1-.5.2-.3.2-.2.3-.1.4.1.3.2a1.85,1.85,0,0,1,.2.7.78.78,0,0,1-.2.8m-.8,1.8.5.1.3.1.5.2.1.1v.1l-.1.2-.1.2-.4.2a1.7,1.7,0,0,1-.7.1h-.3l-.6-.2-.2-.2-.1-.1.1-.2.3-.2h0Zm2.5-4-.2-.2-.2-.1h-.1l-.5.2-.3.2a1.69,1.69,0,0,0-1-.3h-.1a1.78,1.78,0,0,0-1,.4l-.4.5-.1.6a1.85,1.85,0,0,0,.2.7l.4.4-.3.3-.2.4h0l.1.2.2.2.1.1-.5.3-.2.2-.1.3h0l.2.4.5.3c.3.1.7.2,1,.3h.2a5,5,0,0,0,1.2-.2,1.61,1.61,0,0,0,.7-.4l.2-.6h0l-.2-.5-.4-.1h0l-.1-.1a3.59,3.59,0,0,0-1.1-.2,2.64,2.64,0,0,0-.7-.1l-.2-.1h-.1l.1-.1.2-.1.6.1a1.5,1.5,0,0,0,1.1-.4l.4-.5.1-.6h0a1.61,1.61,0,0,0-.3-.9h0l.1.1.3.1h.1l.2-.2.1-.3h0V3.1" style="fill:#221f20"/><path d="M163.7,6.9h0v.2l.1.1.1.1h1l.1-.1.1-.1V7l-.1-.1-.1-.1h0l-.3-.1h-.1V3.1l-.1-.1-.1-.1h-.1l-1,.2-.2.1-.1.2h0v.1l.1.1h.6V6.1l-.6.5-.5.1-.3-.1-.2-.3a1.27,1.27,0,0,1-.1-.6V3.1l-.1-.2-.1-.1h-.2l-.8.2-.2.1-.1.2h0v.1l.1.1h.5V5.9l.1.7.3.5a1.14,1.14,0,0,0,.8.3h0l.7-.2.8-.3h0" style="fill:#221f20"/><path d="M123.9,4.6a1.42,1.42,0,0,1,.2-.6l.3-.3.3-.1h.1l.4.1.3.2a1.14,1.14,0,0,1,.3.8l-1.9-.1Zm2.6,2,.1-.1V6.4l-.1-.1h0l-.2-.1h0l-.1.1-.1.1-.4.4-.6.2h0l-.6-.1-.4-.4a2,2,0,0,1-.3-1.1h2.5l.1-.1V5.2h0A1.75,1.75,0,0,0,126,4l-.5-.5-.7-.2h-.2a1.45,1.45,0,0,0-.7.2,1.7,1.7,0,0,0-.6.6h0a2.3,2.3,0,0,0-.4,1.4h0a3.08,3.08,0,0,0,.3,1.3h0a1.34,1.34,0,0,0,.6.7,3,3,0,0,0,1,.2h0a1.69,1.69,0,0,0,1-.3,3.78,3.78,0,0,0,.7-.8" style="fill:#221f20"/><path d="M106,25.8a1.85,1.85,0,0,1,.2-.7l.3-.3.3-.1h.1l.4.1.3.2a1.14,1.14,0,0,1,.3.8Zm2.7,2,.1-.1-.1-.1-.1-.1h0l-.1-.1-.1.1-.1.1-.4.4-.6.2h0l-.6-.1-.4-.4a2,2,0,0,1-.3-1.1h2.5l.1-.1v-.1h0a1.75,1.75,0,0,0-.4-1.2l-.5-.5-.7-.2h-.3a1.45,1.45,0,0,0-.7.2,1,1,0,0,0-.5.6h0a2.3,2.3,0,0,0-.4,1.4h0a3.08,3.08,0,0,0,.3,1.3h0c.1.3.4.5.6.7a3,3,0,0,0,1,.2,1.69,1.69,0,0,0,1-.3,6.53,6.53,0,0,1,.7-.8" style="fill:#221f20"/><path d="M132.9,4.6a1.42,1.42,0,0,1,.2-.6l.3-.3.3-.1h.1l.4.1.3.2a1.14,1.14,0,0,1,.3.8l-1.9-.1Zm2.7,2,.1-.1-.1-.1-.1-.1h0l-.2-.1h0l-.1.1-.1.1-.4.4-.6.2h0l-.6-.1-.4-.4a2,2,0,0,1-.3-1.1h2.5l.1-.1.1-.1h0a1.75,1.75,0,0,0-.4-1.2l-.5-.5-.7-.2h-.3a1.45,1.45,0,0,0-.7.2,1.7,1.7,0,0,0-.6.6h0a2.3,2.3,0,0,0-.4,1.4h0a3.08,3.08,0,0,0,.3,1.3h0c.1.3.4.5.6.7a3,3,0,0,0,1,.2h0a1.69,1.69,0,0,0,1-.3l.8-.8" style="fill:#221f20"/><path d="M128.6,15.2a1.85,1.85,0,0,1,.2-.7l.3-.3.3-.1h.1l.4.1.3.2a1.14,1.14,0,0,1,.3.8Zm2.6,2,.1-.1V17l-.1-.1h0l-.2-.1-.1.1-.1.1-.4.4-.6.2h0l-.6-.1-.4-.4a2,2,0,0,1-.3-1.1H131l.1-.1.1-.2h0a1.75,1.75,0,0,0-.4-1.2l-.5-.5-.7-.2h-.3a1.45,1.45,0,0,0-.7.2,1,1,0,0,0-.5.6,2.3,2.3,0,0,0-.4,1.4,3.08,3.08,0,0,0,.3,1.3c.1.3.4.5.6.7a1.64,1.64,0,0,0,1,.2h0a3.55,3.55,0,0,0,1-.2c.2-.3.4-.5.6-.8" style="fill:#221f20"/><path d="M176.5,4.6a1.42,1.42,0,0,1,.2-.6l.3-.3.3-.1h.1l.3.1.3.2a1.14,1.14,0,0,1,.3.8l-1.8-.1Zm2.7,2,.1-.1V6.4l-.1-.1h0l-.2-.1-.1.1-.1.1-.4.4-.6.2h0l-.6-.1-.4-.4a2,2,0,0,1-.3-1.1H179l.1-.1V5.2h0a1.75,1.75,0,0,0-.4-1.2l-.5-.5-.7-.2h-.3a1.45,1.45,0,0,0-.7.2,1,1,0,0,0-.5.6h0a2.3,2.3,0,0,0-.4,1.4h0a3.08,3.08,0,0,0,.3,1.3h0a1.34,1.34,0,0,0,.6.7,3,3,0,0,0,1,.2,1.69,1.69,0,0,0,1-.3,6.53,6.53,0,0,1,.7-.8" style="fill:#221f20"/><path d="M146,13.7h-1.6l-.1.1V14l.1.1h.1l.3.1h.1l-.1.2-.8,2-1-2.2v-.1h.4l.1-.1v-.2l-.1-.2h-1.7l-.1.1-.1.1v.1l.1.1.1.1h.1l.1.1h0l.1.1.1.2,1.4,3a3.92,3.92,0,0,1-.4.9l-.1.2-.1.1h-.1l-.2-.1-.2-.1-.2-.1H142l-.2.1-.1.2.1.2.1.2h0l.5.2a2.35,2.35,0,0,0,.8-.2l.5-.6,1.5-3.9h0l.1-.3.1-.1.1-.1.2-.1h.1l.1-.1.1-.1v-.1h0" style="fill:#221f20"/><path d="M126.8,17.5l-.2-.1h0l-.3-.1-.1-.1V13.6l-.1-.1-.2-.1h-.1l-.8.2-.1.1-.1.2h0V14l.1.1h.5v2.8l-.1.1-.2.1H125l-.1.1.1.5v.1l.1.1.1.1h1.5l.1-.1.1-.1v-.1" style="fill:#221f20"/><path d="M125.7,11.7l-.2.1-.1.2-.1.2.1.2.1.2.2.1.2.1h0l.2-.1.2-.1.1-.2.1-.2-.1-.2-.1-.2-.2-.1-.2-.1" style="fill:#221f20"/><path d="M123.9,16.9l-.2-.1h-.1l-.1.1-.1.1-.4.3-.6.1-.5-.1-.4-.3a2,2,0,0,1-.3-1.1h0a3.55,3.55,0,0,1,.2-1,2.09,2.09,0,0,1,.4-.6l.4-.2h.1l.2.1.1.2.2.3.3.2h.1l.3-.1.2-.2.1-.2v-.1h0l-.1-.3-.2-.2-.5-.1-.6-.1a2.35,2.35,0,0,0-.8.2l-.6.5a2.16,2.16,0,0,0-.5,1.7,2.77,2.77,0,0,0,.1.9,1.61,1.61,0,0,0,.4.7l.6.4a2,2,0,0,0,.8.1h0a2.92,2.92,0,0,0,.9-.2,1.34,1.34,0,0,0,.7-.6l.1-.2-.1-.2h-.1" style="fill:#221f20"/><path d="M140.9,16.9l-.2-.1h-.1l-.1.1-.1.1-.4.3-.5.1-.5-.1-.4-.3a2,2,0,0,1-.3-1.1h0a3.4,3.4,0,0,1,.1-1,2.09,2.09,0,0,1,.4-.6l.4-.2h.1l.2.1.1.2.1.3.3.2h.1l.3-.1h0l.1-.2.1-.2v-.1l-.1-.3-.2-.2-.5-.2-.6-.1h0a2.35,2.35,0,0,0-.8.2l-.6.5a2.72,2.72,0,0,0-.6,1.7,2.77,2.77,0,0,0,.1.9,1.61,1.61,0,0,0,.4.7l.6.4a2,2,0,0,0,.8.1,1.93,1.93,0,0,0,1-.3c.3-.1.5-.4.7-.6l.1-.2v0" style="fill:#221f20"/><path d="M113,27.3h0l-.1-.6-.4-.4a3,3,0,0,0-1-.4l-.5-.1-.3-.1-.2-.1-.1-.2v-.1l.1-.2.2-.2.3-.1.4.1a2.28,2.28,0,0,1,.9.8l.1.1.1.1.1-.1h0l.1-.1.1-.1h0v-.1l-.4-1-.1-.1-.1-.1h0l-.2.1-.1.1v.1h-.1a2.35,2.35,0,0,0-.8-.2,1.14,1.14,0,0,0-.8.3l-.3.4-.1.5.1.5.4.4h0l.4.2.6.2h.1l.4.1.3.1.2.2.1.3-.1.2-.1.2-.4.1h-.1a1.33,1.33,0,0,1-.8-.3,1.34,1.34,0,0,1-.6-.7l-.1-.1H110l-.1.1-.1.1h0v.1l.4,1,.1.1.2.1h.1l.1-.1.1-.1h.1l.2.1a1.88,1.88,0,0,0,.8.2h0a1.09,1.09,0,0,0,.9-.4l.3-.4-.1-.5" style="fill:#221f20"/><path d="M118.3,12.6l.2.1.2.1.2-.1.2-.1.1-.2.1-.2-.1-.2-.1-.2-.2-.1-.2-.1h0l-.2.1-.2.1-.1.2-.1.2.1.2" style="fill:#221f20"/><path d="M119.5,17.5l-.1-.1-.3-.1-.1-.1V13.6l-.1-.1-.1-.1h-.1l-.8.2-.1.1-.1.2V14l.1.1h.4V17l-.1.1-.2.1h-.1l-.1.1-.1.1h0v.2l.1.1h1.5l.1-.1.1-.1v-.1" style="fill:#221f20"/><path d="M116.6,11.8l-.2-.1-.2-.1-.6.1-.5.4a2.51,2.51,0,0,0-.4.7,3.08,3.08,0,0,0-.1,1v.1h-.7l-.1.1v.2l.1.1h.8v2.9h0l-.2.1h-.4l-.1.1-.1.1v.1l.1.1h2.2l.1-.1.1-.1v-.1l-.1-.1-.2-.1h-.5l-.1-.1-.1-.2V14.2h.9l.1-.1.1-.1v-.1l-.1-.1-.1-.1h-.8v-.5a1.48,1.48,0,0,1,.1-.7h0l.1-.1h.1l.3.1.2.1h.2l.3-.1.1-.1.1-.2h0l-.1-.2-.3-.2" style="fill:#221f20"/><path d="M130.9,6.1h0l-.1-.6-.4-.4c-.2-.1-.5-.2-1-.4l-.5-.1-.3-.1h0l-.2-.1-.1-.2V4.1l.1-.2.2-.2.3-.1.4.1a1.76,1.76,0,0,1,.9.8l.1.1.1.1h.1l.1-.1.1-.1V4.4h0l-.4-1-.1-.1H130l-.2.1-.1.1v.1h-.1a2.35,2.35,0,0,0-.8-.2h0a1.14,1.14,0,0,0-.8.3l-.3.4-.1.5h0l.1.5.4.4h0l.4.2.6.2h.1l.4.1.3.1h0l.2.2.1.2-.1.2H130l-.4.1h-.1a1.33,1.33,0,0,1-.8-.3,1.34,1.34,0,0,1-.6-.7l-.1-.1-.1-.1h-.1l-.1.1-.1.1h0v.1l.4,1,.1.1.2.1h.1l.1-.1.1-.1h.1l.2.1a2.2,2.2,0,0,0,.8.1,1.09,1.09,0,0,0,.9-.4l.3-.4V6.1" style="fill:#221f20"/><path d="M132.3,14.2l.1.1h.4v2.9l-.1.1h-.3l-.1.1-.1.1h0v.1l.1.1.1.1h1.5l.1-.1v-.2l-.1-.1-.1-.1h-.3l-.1-.1V14.7l.4-.4.6-.2.3.1.2.1.1.3.1.5v2.2h-.4l-.1.1v.2l.1.1.1.1h1.7l.1-.1v-.1h0v-.1l-.1-.1h-.4l-.1-.1V14.9l-.1-.6-.4-.4-.6-.2h0l-.7.2-.5.3v-.5l-.1-.1h-.2l-.8.2-.1.1-.1.2" style="fill:#221f20"/><path d="M111.1,6.3l-.3.3-.4.1a1.27,1.27,0,0,1-.6-.1l-.3-.3v-2l.4-.5.6-.2.4.1.3.4a2,2,0,0,1,.3,1.1,3.58,3.58,0,0,1-.4,1.1m.7-2.7-.6-.4a1.7,1.7,0,0,0-.7-.1l-.7.1-.4.2V3.2l-.1-.2-.1-.1H109l-.8.2-.1.1-.1.2h0v.1l.1.1h.4V8l-.1.1-.1.1h-.1l-.1.1-.1.1v.1l.1.1h1.6l.1-.1V8.3l-.1-.1-.1-.1h0l-.3-.1-.1-.1V6.8l.4.2a1.7,1.7,0,0,0,.7.1,1.85,1.85,0,0,0,.7-.2l.6-.5a3,3,0,0,0,.5-1.6h0c.2-.2,0-.8-.3-1.2" style="fill:#221f20"/><path d="M60.7,14.9H45.5V4H60.7Zm1.8,3.4h0a1.62,1.62,0,0,0,1.4-.5,2.11,2.11,0,0,0,.5-1.3V2.4A2.39,2.39,0,0,0,63.9,1h0A2.39,2.39,0,0,0,62.5.5h-.1a1.65,1.65,0,0,0-1.5.9H45.2A1.89,1.89,0,0,0,43.6.5h-.1a1.87,1.87,0,0,0-1.4.5,2.39,2.39,0,0,0-.5,1.4V27.5a1.61,1.61,0,0,0,.6,1.3,2,2,0,0,0,1.3.6h.1a1.61,1.61,0,0,0,1.3-.6,1.9,1.9,0,0,0,.5-1.3v-10H61a1.76,1.76,0,0,0,1.5.8ZM8.9,10.4V4a2.35,2.35,0,0,0,.5-1.3V2.6A2.09,2.09,0,0,0,8.6,1,2.39,2.39,0,0,0,7.2.5H7.1a2,2,0,0,0-1.5.6A2.2,2.2,0,0,0,5,2.6v.1c0,.4,0,1.4.1,2.9v4.9c-.1,6.1-.2,12.7-.4,14.7C4.1,31.3,2.6,36.3.2,40.1l-.2.5a1.45,1.45,0,0,0,.2.7.62.62,0,0,0,.7.2h0a.91.91,0,0,0,.7-.3A25.51,25.51,0,0,0,7.8,29.1c.6-2.7.9-11.2,1.1-18.7M34.2,24.5h0a1.87,1.87,0,0,0-1.9,1.3H21V2.4h0a1.9,1.9,0,0,0-.5-1.3A1.61,1.61,0,0,0,19.2.5h0a1.61,1.61,0,0,0-1.3.6,1.61,1.61,0,0,0-.6,1.3V27.5a1.87,1.87,0,0,0,.5,1.4,2.39,2.39,0,0,0,1.4.5h0a1.92,1.92,0,0,0,1.6-.9H34.3a2,2,0,0,0,2-2v-.1a2,2,0,0,0-.6-1.4,2.46,2.46,0,0,0-1.5-.5Zm44.8,3a1.9,1.9,0,0,0,.5,1.3,1.61,1.61,0,0,0,1.3.6H81a1.61,1.61,0,0,0,1.3-.6,2.62,2.62,0,0,0,.6-1.3V4.1h7.4a2,2,0,0,0,1.4-.6,2,2,0,0,0,.6-1.4V2A2,2,0,0,0,91.7.6,2,2,0,0,0,90.3,0h-.1a2.05,2.05,0,0,0-1.9,1.3H70.8a1.32,1.32,0,0,0-1.4,1.2v.2h0a1.28,1.28,0,0,0,.4,1,1.21,1.21,0,0,0,1,.3H79V27.5" style="fill:#221f20"/><path d="M55.8,9.4A2.8,2.8,0,1,1,53,6.6a2.86,2.86,0,0,1,2.8,2.8h0" style="fill:#d82628"/></svg>