<svg id="圖層_1" data-name="圖層 1" xmlns="http://www.w3.org/2000/svg" viewBox="0 0 99.81 91.99"><defs><style>.cls-1{fill:#679e63;}</style></defs><title>nodejs</title><path class="cls-1" d="M40.78,92a7,7,0,0,1-3.53-1L26,84.39c-1.68-.94-.86-1.27-.3-1.46a22.63,22.63,0,0,0,5.09-2.32.86.86,0,0,1,.83.07l8.65,5.13a1.12,1.12,0,0,0,1,0L75,66.35a1.05,1.05,0,0,0,.52-.91V26.54a1.09,1.09,0,0,0-.52-.93L41.31,6.17a1,1,0,0,0-1,0L6.58,25.61a1.09,1.09,0,0,0-.53.93v38.9a1,1,0,0,0,.53.9l9.23,5.34c5,2.5,8.08-.45,8.08-3.41V29.86a1,1,0,0,1,1-1h4.28a1,1,0,0,1,1,1V68.27c0,6.69-3.64,10.52-10,10.52-1.95,0-3.48,0-7.76-2.11L3.54,71.59A7.1,7.1,0,0,1,0,65.44V26.54a7.1,7.1,0,0,1,3.54-6.15L37.25.91a7.41,7.41,0,0,1,7.08,0L78,20.39a7.13,7.13,0,0,1,3.54,6.15v38.9A7.14,7.14,0,0,1,78,71.59L44.33,91.05A7,7,0,0,1,40.78,92Z" transform="translate(0 -0.01)"/><path class="cls-1" d="M51.2,65.2c-14.76,0-17.85-6.77-17.85-12.45a1,1,0,0,1,1-1h4.36a1,1,0,0,1,1,.83c.66,4.44,2.62,6.68,11.55,6.68,7.1,0,10.12-1.61,10.12-5.38,0-2.17-.86-3.78-11.89-4.86C40.2,48.12,34.5,46.09,34.5,38.71c0-6.8,5.73-10.86,15.34-10.86,10.8,0,16.15,3.75,16.82,11.79a1,1,0,0,1-.25.75,1,1,0,0,1-.72.31H61.32a1,1,0,0,1-1-.76c-1-4.67-3.6-6.16-10.53-6.16-7.75,0-8.65,2.7-8.65,4.72,0,2.46,1.06,3.17,11.53,4.55S68,46.36,68,53.64,61.88,65.2,51.2,65.2Z" transform="translate(0 -0.01)"/><path class="cls-1" d="M99.81,24.4a6.5,6.5,0,1,1-6.5-6.5A6.52,6.52,0,0,1,99.81,24.4Zm-12,0A5.45,5.45,0,1,0,93.29,19,5.45,5.45,0,0,0,87.86,24.38Zm3-3.63h2.51c.86,0,2.54,0,2.54,1.93a1.67,1.67,0,0,1-1.37,1.78c1,.07,1.06.73,1.2,1.65A6.93,6.93,0,0,0,96.13,28H94.58c0-.34-.27-2.2-.27-2.3-.11-.42-.25-.62-.76-.62H92.28V28H90.87ZM92.25,24h1.13a1,1,0,0,0,1.1-1c0-1-.69-1-1.07-1H92.25Z" transform="translate(0 -0.01)"/></svg>