<svg xmlns="http://www.w3.org/2000/svg" xmlns:xlink="http://www.w3.org/1999/xlink" viewBox="0 0 198.13 197.58"><defs><linearGradient id="a" x1="174.07" y1="-17.55" x2="132.28" y2="56.25" gradientTransform="matrix(1, 0, 0, -1, 0, 198)" gradientUnits="userSpaceOnUse"><stop offset="0" stop-color="#fb7655"/><stop offset="0.41" stop-color="#e42b1e"/><stop offset="0.99" stop-color="#900"/><stop offset="1" stop-color="#900"/></linearGradient><linearGradient id="b" x1="194.9" y1="44.44" x2="141.03" y2="80.59" gradientTransform="matrix(1, 0, 0, -1, 0, 198)" gradientUnits="userSpaceOnUse"><stop offset="0" stop-color="#871101"/><stop offset="0.99" stop-color="#911209"/><stop offset="1" stop-color="#911209"/></linearGradient><linearGradient id="c" x1="151.8" y1="-19.79" x2="97.93" y2="16.36" xlink:href="#b"/><linearGradient id="d" x1="38.7" y1="70.61" x2="47.05" y2="16.34" gradientTransform="matrix(1, 0, 0, -1, 0, 198)" gradientUnits="userSpaceOnUse"><stop offset="0" stop-color="#fff"/><stop offset="0.23" stop-color="#e57252"/><stop offset="0.46" stop-color="#de3b20"/><stop offset="0.99" stop-color="#a60003"/><stop offset="1" stop-color="#a60003"/></linearGradient><linearGradient id="e" x1="96.13" y1="121.28" x2="99.21" y2="65.9" gradientTransform="matrix(1, 0, 0, -1, 0, 198)" gradientUnits="userSpaceOnUse"><stop offset="0" stop-color="#fff"/><stop offset="0.23" stop-color="#e4714e"/><stop offset="0.56" stop-color="#be1a0d"/><stop offset="0.99" stop-color="#a80d00"/><stop offset="1" stop-color="#a80d00"/></linearGradient><linearGradient id="f" x1="147.1" y1="172.48" x2="156.31" y2="132.78" gradientTransform="matrix(1, 0, 0, -1, 0, 198)" gradientUnits="userSpaceOnUse"><stop offset="0" stop-color="#fff"/><stop offset="0.18" stop-color="#e46342"/><stop offset="0.4" stop-color="#c82410"/><stop offset="0.99" stop-color="#a80d00"/><stop offset="1" stop-color="#a80d00"/></linearGradient><linearGradient id="g" x1="118.98" y1="186.46" x2="158.67" y2="206.3" gradientTransform="matrix(1, 0, 0, -1, 0, 198)" gradientUnits="userSpaceOnUse"><stop offset="0" stop-color="#fff"/><stop offset="0.54" stop-color="#c81f11"/><stop offset="0.99" stop-color="#bf0905"/><stop offset="1" stop-color="#bf0905"/></linearGradient><linearGradient id="h" x1="3.9" y1="84.45" x2="7.17" y2="51.74" gradientTransform="matrix(1, 0, 0, -1, 0, 198)" gradientUnits="userSpaceOnUse"><stop offset="0" stop-color="#fff"/><stop offset="0.31" stop-color="#de4024"/><stop offset="0.99" stop-color="#bf190b"/><stop offset="1" stop-color="#bf190b"/></linearGradient><linearGradient id="i" x1="-18.56" y1="42.9" x2="135.01" y2="200.81" gradientTransform="matrix(1, 0, 0, -1, 0, 198)" gradientUnits="userSpaceOnUse"><stop offset="0" stop-color="#bd0012"/><stop offset="0.07" stop-color="#fff"/><stop offset="0.17" stop-color="#fff"/><stop offset="0.27" stop-color="#c82f1c"/><stop offset="0.33" stop-color="#820c01"/><stop offset="0.46" stop-color="#a31601"/><stop offset="0.72" stop-color="#b31301"/><stop offset="0.99" stop-color="#e82609"/><stop offset="1" stop-color="#e82609"/></linearGradient><linearGradient id="j" x1="99.07" y1="26.97" x2="52.82" y2="38.38" gradientTransform="matrix(1, 0, 0, -1, 0, 198)" gradientUnits="userSpaceOnUse"><stop offset="0" stop-color="#8c0c01"/><stop offset="0.54" stop-color="#990c00"/><stop offset="0.99" stop-color="#a80d0e"/><stop offset="1" stop-color="#a80d0e"/></linearGradient><linearGradient id="k" x1="178.53" y1="82.49" x2="137.43" y2="119.32" gradientTransform="matrix(1, 0, 0, -1, 0, 198)" gradientUnits="userSpaceOnUse"><stop offset="0" stop-color="#7e110b"/><stop offset="0.99" stop-color="#9e0c00"/><stop offset="1" stop-color="#9e0c00"/></linearGradient><linearGradient id="l" x1="193.62" y1="150.06" x2="173.15" y2="171.95" gradientTransform="matrix(1, 0, 0, -1, 0, 198)" gradientUnits="userSpaceOnUse"><stop offset="0" stop-color="#79130d"/><stop offset="0.99" stop-color="#9e120b"/><stop offset="1" stop-color="#9e120b"/></linearGradient><radialGradient id="m" cx="143.83" cy="118.61" r="50.36" gradientTransform="matrix(1, 0, 0, -1, 0, 198)" gradientUnits="userSpaceOnUse"><stop offset="0" stop-color="#a80d00"/><stop offset="0.99" stop-color="#7e0e08"/><stop offset="1" stop-color="#7e0e08"/></radialGradient><radialGradient id="n" cx="74.09" cy="52.25" r="66.94" gradientTransform="matrix(1, 0, 0, -1, 0, 198)" gradientUnits="userSpaceOnUse"><stop offset="0" stop-color="#a30c00"/><stop offset="0.99" stop-color="#800e08"/><stop offset="1" stop-color="#800e08"/></radialGradient><linearGradient id="o" x1="26.67" y1="0.66" x2="9.99" y2="57.26" gradientTransform="matrix(1, 0, 0, -1, 0, 198)" gradientUnits="userSpaceOnUse"><stop offset="0" stop-color="#8b2114"/><stop offset="0.43" stop-color="#9e100a"/><stop offset="0.99" stop-color="#b3100c"/><stop offset="1" stop-color="#b3100c"/></linearGradient><linearGradient id="p" x1="154.64" y1="188.2" x2="192.04" y2="171.69" gradientTransform="matrix(1, 0, 0, -1, 0, 198)" gradientUnits="userSpaceOnUse"><stop offset="0" stop-color="#b31000"/><stop offset="0.44" stop-color="#910f08"/><stop offset="0.99" stop-color="#791c12"/><stop offset="1" stop-color="#791c12"/></linearGradient></defs><title>ruby</title><polygon points="153.5 130.41 40.38 197.58 186.85 187.64 198.13 39.95 153.5 130.41" style="fill-rule:evenodd;fill:url(#a)"/><polygon points="187.09 187.54 174.5 100.65 140.21 145.93 187.09 187.54" style="fill-rule:evenodd;fill:url(#b)"/><polygon points="187.26 187.54 95.03 180.3 40.87 197.39 187.26 187.54" style="fill-rule:evenodd;fill:url(#c)"/><polygon points="41 197.41 64.04 121.93 13.34 132.77 41 197.41" style="fill-rule:evenodd;fill:url(#d)"/><polygon points="140.2 146.18 119 63.14 58.33 120.01 140.2 146.18" style="fill-rule:evenodd;fill:url(#e)"/><polygon points="193.32 64.31 135.97 17.47 120 69.1 193.32 64.31" style="fill-rule:evenodd;fill:url(#f)"/><polygon points="166.5 0.77 132.77 19.41 111.49 0.52 166.5 0.77" style="fill-rule:evenodd;fill:url(#g)"/><polygon points="0 158.09 14.13 132.32 2.7 101.62 0 158.09" style="fill-rule:evenodd;fill:url(#h)"/><path d="M1.94,100.65l11.5,32.62,50-11.21,57.05-53,16.1-51.14L111.21,0,68.11,16.13C54.53,28.76,28.18,53.75,27.23,54.22S9.83,85.81,1.94,100.65Z" style="fill:#fff;fill-rule:evenodd"/><path d="M42.32,42.05c29.43-29.18,67.37-46.42,81.93-31.73s-.88,50.39-30.31,79.56S27,137.24,12.49,122.55,12.89,71.22,42.32,42.05Z" style="fill-rule:evenodd;fill:url(#i)"/><path d="M41,197.38l22.86-75.72,75.92,24.39C112.33,171.79,81.8,193.55,41,197.38Z" style="fill-rule:evenodd;fill:url(#j)"/><path d="M120.56,68.89l19.49,77.2C163,122,183.56,96.06,193.64,64Z" style="fill-rule:evenodd;fill:url(#k)"/><path d="M193.44,64.39C201.24,40.85,203,7.08,166.26.81L136.08,17.48Z" style="fill-rule:evenodd;fill:url(#l)"/><path d="M0,157.75c1.08,38.85,29.11,39.43,41.05,39.77L13.47,133.11Z" style="fill:#9e1209;fill-rule:evenodd"/><path d="M120.67,69c17.62,10.83,53.13,32.58,53.85,33,1.12.63,15.31-23.93,18.53-37.81Z" style="fill-rule:evenodd;fill:url(#m)"/><path d="M63.83,121.66l30.56,59c18.07-9.8,32.22-21.74,45.18-34.53Z" style="fill-rule:evenodd;fill:url(#n)"/><path d="M13.35,133.19,9,184.75c8.17,11.16,19.41,12.13,31.2,11.26C31.69,174.78,14.65,132.33,13.35,133.19Z" style="fill-rule:evenodd;fill:url(#o)"/><path d="M135.9,17.61l60.71,8.52C193.37,12.4,183.42,3.54,166.46.77Z" style="fill-rule:evenodd;fill:url(#p)"/></svg>