<?xml version="1.0" encoding="utf-8"?>
<!-- Generator: Adobe Illustrator 23.0.1, SVG Export Plug-In . SVG Version: 6.00 Build 0)  -->
<svg version="1.1" id="圖層_1" xmlns="http://www.w3.org/2000/svg" xmlns:xlink="http://www.w3.org/1999/xlink" x="0px" y="0px"
	 viewBox="0 0 23.5 12.3" style="enable-background:new 0 0 23.5 12.3;" xml:space="preserve">
<style type="text/css">
	.st0{fill:#034380;}
	.st1{fill:#862320;}
	.st2{enable-background:new    ;}
	.st3{fill:none;}
</style>
<path class="st0" d="M8.5,4.9c-0.9,0.7-1.9,1.1-3,1.3C3.8,6.6,2.2,6.4,1.4,5.7C1,5.4,0.8,4.9,0.7,4.4C0.6,3.2,1.6,1.9,3.3,1V0.9
	C1.3,1.7-0.1,3.2,0,4.6c0,0.6,0.3,1.1,0.7,1.5c0.9,0.8,2.5,1,4.4,0.7C6.4,6.5,7.6,5.9,8.5,4.9L8.5,4.9z"/>
<path class="st1" d="M9.8,1.5C9.4,0.7,8.6,0.2,7.7,0.1C6-0.2,4.3,0.4,3.1,1.6l0,0c0.8-0.6,1.7-1,2.6-1.1c1.4-0.2,2.7,0.1,3.3,1
	c0.6,0.9,0.4,2.4-0.3,3.3v0l0,0C9.8,3.8,10.4,2.7,9.8,1.5z"/>
<path class="st0" d="M3.7,3.7H2.6L2.5,4.4h1.3L3.7,4.9H1.8l0.5-2.7h1.8L4,2.6H2.8L2.7,3.2h1.1L3.7,3.7z"/>
<path class="st0" d="M4.8,2.6H4.2l0.1-0.5h2.3c-0.1,0-0.3,0.1-0.4,0.2C6.1,2.4,6.1,2.5,6.1,2.6H5.4L5,4.9H4.4L4.8,2.6z"/>
<path class="st0" d="M6.1,4.2c0.2,0.1,0.5,0.2,0.7,0.2c0.2,0,0.4-0.1,0.4-0.3S7.1,3.9,6.9,3.8C6.6,3.6,6.2,3.4,6.2,3
	c0-0.6,0.5-0.9,1.1-0.9c0.3,0,0.5,0,0.7,0.1L7.9,2.7C7.7,2.6,7.5,2.6,7.3,2.6C7,2.6,6.9,2.7,6.9,2.9c0,0.1,0.2,0.3,0.4,0.4
	C7.7,3.4,7.9,3.6,7.9,4c0,0.6-0.5,0.9-1.2,0.9c-0.3,0-0.6-0.1-0.9-0.2L6.1,4.2z"/>
<path class="st0" d="M9.7,5.5c-0.1,0.2-0.4,0.2-0.6,0c0,0,0,0,0,0C9,5.4,9,5.2,9.1,5c0.2-0.2,0.4-0.2,0.6,0C9.8,5,9.8,5.2,9.8,5.3
	C9.8,5.4,9.8,5.5,9.7,5.5z M9.2,5c-0.1,0.1-0.1,0.3,0,0.5c0,0,0,0,0,0l0,0c0.1,0.1,0.3,0.1,0.5,0c0,0,0,0,0,0
	c0.1-0.1,0.1-0.1,0.1-0.2c0-0.2-0.1-0.3-0.3-0.3C9.4,4.9,9.3,5,9.2,5L9.2,5z M9.4,5.1h0.1c0,0,0.1,0.1,0.1,0.1s0,0.1,0,0.1
	c0,0,0,0-0.1,0c0,0,0,0,0.1,0c0,0,0,0,0,0.1v0.1H9.5v0c0,0,0-0.1,0-0.1H9.4v0.2H9.3V5.1L9.4,5.1L9.4,5.1z M9.5,5.1H9.4v0.1h0.1
	C9.6,5.3,9.6,5.2,9.5,5.1C9.6,5.2,9.6,5.1,9.5,5.1L9.5,5.1z"/>
<path class="st0" d="M12.5,2.4h-0.9l0.1-0.5h2.3L14,2.4h-0.9l-0.5,2.7H12L12.5,2.4z"/>
<path class="st0" d="M15,5.2c-0.7,0-1.2-0.5-1.3-1.2c0,0,0-0.1,0-0.1c0-0.6,0.2-1.1,0.6-1.5c0.3-0.3,0.7-0.4,1.2-0.4
	c0.7,0,1.2,0.5,1.2,1.2c0,0.1,0,0.1,0,0.2c0,0.6-0.2,1.1-0.6,1.5C15.9,5,15.5,5.2,15,5.2L15,5.2z M15.1,4.7c0.2,0,0.5-0.1,0.6-0.3
	c0.3-0.4,0.4-0.8,0.4-1.2c0-0.4-0.1-0.9-0.7-0.9c-0.2,0-0.5,0.1-0.6,0.3c-0.3,0.3-0.4,0.8-0.4,1.2C14.4,4.3,14.6,4.7,15.1,4.7z"/>
<path class="st0" d="M18.8,3.7h-1.1l-0.2,0.9h1.3l-0.1,0.5h-1.8l0.6-3.2h1.8l-0.1,0.5H18l-0.2,0.8h1.1L18.8,3.7z"/>
<path class="st0" d="M20.3,1.9l-0.6,3.2h-0.5l0.6-3.2L20.3,1.9z"/>
<path class="st0" d="M22.6,5c-0.3,0.1-0.6,0.1-0.8,0.1c-0.7,0.1-1.3-0.4-1.4-1.1c0-0.1,0-0.1,0-0.2c0-0.6,0.3-1.2,0.7-1.6
	c0.3-0.3,0.8-0.4,1.2-0.4c0.2,0,0.5,0,0.7,0.1l-0.2,0.4c-0.2-0.1-0.4-0.1-0.6-0.1c-0.3,0-0.6,0.1-0.8,0.3C21.2,2.9,21,3.3,21,3.8
	c-0.1,0.5,0.3,0.9,0.7,0.9c0.1,0,0.1,0,0.2,0c0.2,0,0.4,0,0.6-0.1L22.6,5z"/>
<path class="st0" d="M23.4,5c-0.1,0.1-0.4,0.1-0.5,0c-0.1-0.1-0.1-0.4,0-0.5c0.1-0.1,0.4-0.1,0.5,0c0.1,0.1,0.1,0.2,0.1,0.3
	C23.5,4.8,23.5,4.9,23.4,5z M22.9,4.5c-0.1,0.1-0.1,0.3,0,0.5l0,0c0.1,0.1,0.3,0.1,0.5,0c0,0,0,0,0,0l0,0c0.1-0.1,0.1-0.3,0-0.5
	c0,0,0,0,0,0l0,0c-0.1-0.1-0.1-0.1-0.2-0.1C23.1,4.4,23,4.4,22.9,4.5L22.9,4.5z M23.2,4.5h0.1c0,0,0.1,0.1,0.1,0.1s0,0.1,0,0.1
	c0,0,0,0-0.1,0c0,0,0,0,0.1,0c0,0,0,0,0,0.1v0.1h-0.1v0c0,0,0-0.1,0-0.1h-0.1v0.2H23V4.5L23.2,4.5L23.2,4.5z M23.2,4.6h-0.1v0.1h0.1
	C23.3,4.7,23.3,4.7,23.2,4.6C23.3,4.6,23.3,4.6,23.2,4.6L23.2,4.6z"/>
<g class="st2">
	<rect x="5.7" y="7.5" class="st3" width="14.7" height="4.8"/>
	<path class="st0" d="M5.9,11c0-0.5,0.3-0.8,0.7-1v0C6.3,9.8,6.1,9.6,6.1,9.2c0-0.5,0.4-0.9,1-0.9c0.6,0,1,0.4,1,0.9
		c0,0.4-0.3,0.7-0.5,0.9v0c0.3,0.2,0.6,0.4,0.6,0.9c0,0.5-0.5,1-1.2,1C6.4,12,5.9,11.6,5.9,11z M7.8,11c0-0.5-0.5-0.6-1-0.8
		c-0.3,0.2-0.5,0.5-0.5,0.8c0,0.4,0.3,0.7,0.8,0.7C7.5,11.6,7.8,11.4,7.8,11z M7.7,9.3c0-0.4-0.2-0.6-0.6-0.6
		c-0.3,0-0.6,0.2-0.6,0.6c0,0.4,0.4,0.6,0.8,0.8C7.6,9.8,7.7,9.5,7.7,9.3z"/>
	<path class="st0" d="M8.6,11.5l0.2-0.3c0.2,0.2,0.5,0.4,0.9,0.4c0.4,0,0.8-0.3,0.8-0.8S10.2,10,9.8,10c-0.2,0-0.4,0.1-0.6,0.2
		l-0.2-0.2L9,8.4h1.8v0.4H9.4L9.3,9.8c0.2-0.1,0.3-0.1,0.5-0.1c0.6,0,1.1,0.3,1.1,1.1c0,0.8-0.6,1.2-1.2,1.2
		C9.2,12,8.9,11.7,8.6,11.5z"/>
	<path class="st0" d="M11.6,10.1c0-1.2,0.4-1.8,1.1-1.8s1.1,0.6,1.1,1.8c0,1.2-0.4,1.9-1.1,1.9S11.6,11.3,11.6,10.1z M13.4,10.1
		c0-1-0.3-1.5-0.7-1.5c-0.4,0-0.7,0.4-0.7,1.5s0.3,1.5,0.7,1.5C13.1,11.6,13.4,11.2,13.4,10.1z"/>
	<path class="st0" d="M17.2,8c-0.3,0.9-0.8,1.6-1.4,2c-0.1-0.1-0.2-0.2-0.3-0.3c0.6-0.4,1-1.1,1.3-1.9L17.2,8z M19.4,9.6
		c0,0,0,0.1,0,0.2c-0.1,1.5-0.1,2.1-0.3,2.3c-0.1,0.1-0.2,0.2-0.4,0.2c-0.2,0-0.5,0-0.8,0c0-0.1,0-0.3-0.1-0.4c0.3,0,0.6,0,0.8,0
		c0.1,0,0.2,0,0.2-0.1c0.1-0.1,0.2-0.6,0.3-1.9h-1.3c-0.1,1-0.5,1.9-1.7,2.4c0-0.1-0.2-0.2-0.2-0.3c1.2-0.4,1.5-1.2,1.6-2h-1V9.6
		H19.4z M18.7,7.8c0.3,0.8,0.8,1.5,1.4,1.9C20.1,9.8,20,9.9,19.9,10c-0.6-0.4-1.1-1.1-1.4-1.8h-0.9V7.8H18.7z"/>
</g>
<g>
</g>
<g>
</g>
<g>
</g>
<g>
</g>
<g>
</g>
<g>
</g>
</svg>
