<svg xmlns="http://www.w3.org/2000/svg" viewBox="0 0 512 512"><title>typescript</title><rect width="512" height="512" rx="50" style="fill:#3178c6"/><path d="M317,407v50c8.1,4.2,18,7.3,29,9.4a189.13,189.13,0,0,0,35,3.1,163.37,163.37,0,0,0,34-3.4,86.26,86.26,0,0,0,28-11c8.1-5.3,15-12,19-21a75.6,75.6,0,0,0,7.1-32,65.94,65.94,0,0,0-4.1-24,47.11,47.11,0,0,0-12-18,79.42,79.42,0,0,0-18-14,223.3,223.3,0,0,0-24-12c-6.6-2.7-12-5.3-18-7.9a78,78,0,0,1-13-7.8,35.69,35.69,0,0,1-8.5-8.4,17.56,17.56,0,0,1-3-10,16.76,16.76,0,0,1,2.7-9.3,23.4,23.4,0,0,1,7.5-7.1,39,39,0,0,1,12-4.6,69.83,69.83,0,0,1,16-1.6,92.33,92.33,0,0,1,13,.94,107.27,107.27,0,0,1,14,2.9,111.11,111.11,0,0,1,14,4.9,66.07,66.07,0,0,1,12,6.9V246a123.53,123.53,0,0,0-25-6.5,200.5,200.5,0,0,0-31-2.1,150.76,150.76,0,0,0-34,3.8,79.15,79.15,0,0,0-28,12,57.58,57.58,0,0,0-19,21c-4.7,8.4-7,18-7,30,0,15,4.3,28,13,38,8.6,11,22,19,39,27,6.9,2.8,13,5.6,19,8.3a85.32,85.32,0,0,1,15,8.4,36.64,36.64,0,0,1,10,9.5,19.74,19.74,0,0,1,3.8,12,18.6,18.6,0,0,1-2.3,9,19.68,19.68,0,0,1-7.1,7.2,40.56,40.56,0,0,1-12,4.8,73.1,73.1,0,0,1-17,1.7,90.65,90.65,0,0,1-32-5.7,95,95,0,0,1-30-17ZM233,284h64V243H118v41h64V467h51Z" transform="translate(0 0)" style="fill:#fff;fill-rule:evenodd"/></svg>